solid Exported from Blender-2.83.0
facet normal 0.000000 0.000000 1.000000
outer loop
vertex 0.995421 -1.259964 -1.490000
vertex 0.995421 -1.113273 -1.490000
vertex -0.677010 -0.915419 -1.490000
endloop
endfacet
facet normal 0.000000 0.000000 1.000000
outer loop
vertex 0.995421 -1.259964 -1.490000
vertex -0.677010 -0.915419 -1.490000
vertex -0.677010 -1.259964 -1.490000
endloop
endfacet
facet normal 0.000000 0.000000 1.000000
outer loop
vertex -0.903579 1.194542 -1.490000
vertex -0.995421 1.194542 -1.490000
vertex -0.995421 -0.915419 -1.490000
endloop
endfacet
facet normal 0.000000 0.000000 1.000000
outer loop
vertex -0.903579 1.194542 -1.490000
vertex -0.995421 -0.915419 -1.490000
vertex -0.677010 -0.915419 -1.490000
endloop
endfacet
facet normal 0.000000 0.000000 1.000000
outer loop
vertex -0.903579 1.617056 -1.490000
vertex 0.798113 1.194542 -1.490000
vertex 0.798113 1.617056 -1.490000
endloop
endfacet
facet normal 0.000000 0.000000 1.000000
outer loop
vertex -0.677010 -0.915419 -1.490000
vertex 0.995421 -1.113273 -1.490000
vertex -0.903579 1.617056 -1.490000
endloop
endfacet
facet normal 0.000001 0.000000 1.000000
outer loop
vertex -0.677010 -0.915419 -1.490000
vertex -0.903579 1.617056 -1.490000
vertex -0.903579 1.194542 -1.490000
endloop
endfacet
facet normal 0.000000 0.000000 1.000000
outer loop
vertex 0.798113 1.194542 -1.490000
vertex 0.995421 -1.113273 -1.490000
vertex 0.995421 1.194542 -1.490000
endloop
endfacet
facet normal -0.000000 0.000000 1.000000
outer loop
vertex 0.995421 1.107984 -1.490000
vertex 0.995421 -1.113273 -1.490000
vertex 1.394468 -1.113273 -1.490000
endloop
endfacet
facet normal -0.000001 0.000000 1.000000
outer loop
vertex 0.995421 1.107984 -1.490000
vertex 1.394468 -1.113273 -1.490000
vertex 1.394468 1.107984 -1.490000
endloop
endfacet
facet normal 0.000000 0.000000 1.000000
outer loop
vertex -0.903579 1.617056 -1.490000
vertex 0.995421 -1.113273 -1.490000
vertex 0.798113 1.194542 -1.490000
endloop
endfacet
facet normal -0.000001 0.000000 1.000000
outer loop
vertex -0.995421 -0.499942 -1.490000
vertex -0.995421 0.456501 -1.490000
vertex -1.426381 0.460374 -1.490000
endloop
endfacet
facet normal 0.000000 0.000000 1.000000
outer loop
vertex -0.995421 -0.499942 -1.490000
vertex -1.426381 0.460374 -1.490000
vertex -1.434081 -0.503752 -1.490000
endloop
endfacet
facet normal -0.008986 -0.999960 0.000000
outer loop
vertex -1.426381 0.460374 -1.490000
vertex -0.995421 0.456501 -1.490000
vertex -0.995421 0.456501 0.628748
endloop
endfacet
facet normal 0.000000 -0.999998 -0.001828
outer loop
vertex -1.426381 0.460374 -1.490000
vertex -0.995421 0.456501 0.628748
vertex -1.427998 0.456501 0.628748
endloop
endfacet
facet normal -0.008685 0.999961 -0.001773
outer loop
vertex -0.995421 -0.499942 -1.490000
vertex -1.434081 -0.503752 -1.490000
vertex -1.427998 -0.499942 0.628748
endloop
endfacet
facet normal 0.000000 1.000000 0.000000
outer loop
vertex -0.995421 -0.499942 -1.490000
vertex -1.427998 -0.499942 0.628748
vertex -0.995421 -0.499942 0.628748
endloop
endfacet
facet normal 0.000000 0.000000 -1.000000
outer loop
vertex -1.427998 -0.499942 0.628748
vertex -1.427998 0.456501 0.628748
vertex -0.995421 0.456501 0.628748
endloop
endfacet
facet normal 0.000000 0.000000 -1.000000
outer loop
vertex -1.427998 -0.499942 0.628748
vertex -0.995421 0.456501 0.628748
vertex -0.995421 -0.499942 0.628748
endloop
endfacet
facet normal 0.000000 0.000000 1.000000
outer loop
vertex 0.477517 -1.259964 -1.490000
vertex -0.442763 -1.259964 -1.490000
vertex -0.442763 -1.676601 -1.490000
endloop
endfacet
facet normal 0.000000 0.000000 1.000000
outer loop
vertex 0.477517 -1.259964 -1.490000
vertex -0.442763 -1.676601 -1.490000
vertex 0.477517 -1.676601 -1.490000
endloop
endfacet
facet normal 1.000000 0.000000 0.000000
outer loop
vertex -0.442763 -1.676601 -1.490000
vertex -0.442763 -1.259964 -1.490000
vertex -0.442763 -1.259964 0.613744
endloop
endfacet
facet normal 1.000000 0.000000 0.000000
outer loop
vertex -0.442763 -1.676601 -1.490000
vertex -0.442763 -1.259964 0.613744
vertex -0.442763 -1.676601 0.613744
endloop
endfacet
facet normal -1.000000 0.000000 0.000000
outer loop
vertex 0.477517 -1.259964 -1.490000
vertex 0.477517 -1.676601 -1.490000
vertex 0.477517 -1.676601 0.613744
endloop
endfacet
facet normal -1.000000 0.000000 0.000000
outer loop
vertex 0.477517 -1.259964 -1.490000
vertex 0.477517 -1.676601 0.613744
vertex 0.477517 -1.259964 0.613744
endloop
endfacet
facet normal 0.000000 0.000000 -1.000000
outer loop
vertex 0.477517 -1.676601 0.613744
vertex -0.442763 -1.676601 0.613744
vertex -0.442763 -1.259964 0.613744
endloop
endfacet
facet normal 0.000000 0.000000 -1.000000
outer loop
vertex 0.477517 -1.676601 0.613744
vertex -0.442763 -1.259964 0.613744
vertex 0.477517 -1.259964 0.613744
endloop
endfacet
facet normal -0.000000 1.000000 0.000000
outer loop
vertex 1.394468 -1.113273 -1.490000
vertex 0.995421 -1.113273 -1.490000
vertex 0.995421 -1.113273 1.010701
endloop
endfacet
facet normal -0.000000 1.000000 0.000000
outer loop
vertex 1.394468 -1.113273 -1.490000
vertex 0.995421 -1.113273 1.010701
vertex 1.394468 -1.113273 1.010701
endloop
endfacet
facet normal -0.000000 -1.000000 0.000000
outer loop
vertex 0.995421 1.107984 -1.490000
vertex 1.394468 1.107984 -1.490000
vertex 1.394468 1.107984 1.066301
endloop
endfacet
facet normal -0.000000 -1.000000 0.000000
outer loop
vertex 0.995421 1.107984 -1.490000
vertex 1.394468 1.107984 1.066301
vertex 0.995421 1.107984 1.066301
endloop
endfacet
facet normal 0.000000 0.378800 -0.925479
outer loop
vertex 1.394468 -0.557959 1.237991
vertex 1.394468 -1.113273 1.010701
vertex 0.995421 -1.113273 1.010701
endloop
endfacet
facet normal 0.000000 0.378799 -0.925479
outer loop
vertex 1.394468 -0.557959 1.237991
vertex 0.995421 -1.113273 1.010701
vertex 0.995421 -0.557959 1.237991
endloop
endfacet
facet normal -0.000000 -0.295381 -0.955380
outer loop
vertex 1.394468 1.107984 1.066301
vertex 1.394468 0.552670 1.237991
vertex 0.995421 0.552670 1.237991
endloop
endfacet
facet normal 0.000000 -0.295381 -0.955380
outer loop
vertex 1.394468 1.107984 1.066301
vertex 0.995421 0.552670 1.237991
vertex 0.995421 1.107984 1.066301
endloop
endfacet
facet normal -0.000000 -0.128502 -0.991709
outer loop
vertex 1.394468 0.552670 1.237991
vertex 1.394468 -0.002644 1.309947
vertex 0.995421 -0.002644 1.309947
endloop
endfacet
facet normal 0.000000 -0.128502 -0.991709
outer loop
vertex 1.394468 0.552670 1.237991
vertex 0.995421 -0.002644 1.309947
vertex 0.995421 0.552670 1.237991
endloop
endfacet
facet normal 0.000000 0.128502 -0.991709
outer loop
vertex 1.394468 -0.002644 1.309947
vertex 1.394468 -0.557959 1.237991
vertex 0.995421 -0.557959 1.237991
endloop
endfacet
facet normal 0.000000 0.128502 -0.991709
outer loop
vertex 1.394468 -0.002644 1.309947
vertex 0.995421 -0.557959 1.237991
vertex 0.995421 -0.002644 1.309947
endloop
endfacet
facet normal 1.000000 0.000000 0.000000
outer loop
vertex -0.903579 1.194542 -1.490000
vertex -0.903579 1.617056 -1.490000
vertex -0.903579 1.617056 1.069856
endloop
endfacet
facet normal 1.000000 0.000000 0.000000
outer loop
vertex -0.903579 1.194542 -1.490000
vertex -0.903579 1.617056 1.069856
vertex -0.903579 1.194542 1.069856
endloop
endfacet
facet normal -1.000000 0.000000 0.000000
outer loop
vertex 0.798113 1.617056 -1.490000
vertex 0.798113 1.194542 -1.490000
vertex 0.798113 1.194542 1.069856
endloop
endfacet
facet normal -1.000000 0.000000 0.000000
outer loop
vertex 0.798113 1.617056 -1.490000
vertex 0.798113 1.194542 1.069856
vertex 0.798113 1.617056 1.069856
endloop
endfacet
facet normal 0.259414 0.000000 -0.965766
outer loop
vertex -0.478156 1.194542 1.184128
vertex -0.903579 1.194542 1.069856
vertex -0.903579 1.617056 1.069856
endloop
endfacet
facet normal 0.259414 0.000000 -0.965766
outer loop
vertex -0.478156 1.194542 1.184128
vertex -0.903579 1.617056 1.069856
vertex -0.478156 1.617056 1.184128
endloop
endfacet
facet normal -0.259154 0.044725 -0.964800
outer loop
vertex 0.798113 1.194542 1.069856
vertex 0.372690 1.194542 1.184128
vertex 0.372690 1.617056 1.203714
endloop
endfacet
facet normal -0.300142 0.000000 -0.953894
outer loop
vertex 0.798113 1.194542 1.069856
vertex 0.372690 1.617056 1.203714
vertex 0.798113 1.617056 1.069856
endloop
endfacet
facet normal -0.154655 0.000000 -0.987969
outer loop
vertex 0.372690 1.194542 1.184128
vertex -0.052733 1.194542 1.250723
vertex -0.052733 1.617056 1.250723
endloop
endfacet
facet normal -0.109715 0.046027 -0.992897
outer loop
vertex 0.372690 1.194542 1.184128
vertex -0.052733 1.617056 1.250723
vertex 0.372690 1.617056 1.203714
endloop
endfacet
facet normal 0.154656 0.000000 -0.987968
outer loop
vertex -0.052733 1.194542 1.250723
vertex -0.478156 1.194542 1.184128
vertex -0.478156 1.617056 1.184128
endloop
endfacet
facet normal 0.154655 0.000000 -0.987969
outer loop
vertex -0.052733 1.194542 1.250723
vertex -0.478156 1.617056 1.184128
vertex -0.052733 1.617056 1.250723
endloop
endfacet
facet normal 1.000000 0.000000 -0.000000
outer loop
vertex -0.677010 -1.259964 -1.490000
vertex -0.677010 -0.915419 -1.490000
vertex -0.677010 -0.915419 1.609351
endloop
endfacet
facet normal 1.000000 0.000000 -0.000000
outer loop
vertex -0.677010 -1.259964 -1.490000
vertex -0.677010 -0.915419 1.609351
vertex -0.677010 -1.259964 1.609351
endloop
endfacet
facet normal 0.000000 1.000000 -0.000000
outer loop
vertex -0.677010 -0.915419 -1.490000
vertex -0.995421 -0.915419 -1.490000
vertex -0.995421 -0.915419 1.609351
endloop
endfacet
facet normal 0.000000 1.000000 -0.000000
outer loop
vertex -0.677010 -0.915419 -1.490000
vertex -0.995421 -0.915419 1.609351
vertex -0.677010 -0.915419 1.609351
endloop
endfacet
facet normal 0.000000 1.000000 0.000000
outer loop
vertex -0.677010 -1.259964 -1.490000
vertex -0.677010 -1.259964 1.609351
vertex -0.442763 -1.259964 0.613744
endloop
endfacet
facet normal 0.000000 1.000000 0.000000
outer loop
vertex -0.677010 -1.259964 -1.490000
vertex -0.442763 -1.259964 0.613744
vertex -0.442763 -1.259964 -1.490000
endloop
endfacet
facet normal 0.000000 1.000000 0.000000
outer loop
vertex 0.995421 -1.259964 -1.490000
vertex 0.477517 -1.259964 -1.490000
vertex 0.477517 -1.259964 0.613744
endloop
endfacet
facet normal -0.000000 1.000000 0.000000
outer loop
vertex 0.995421 -1.259964 -1.490000
vertex 0.477517 -1.259964 0.613744
vertex 0.995421 -1.259964 1.609351
endloop
endfacet
facet normal 0.000000 1.000000 0.000000
outer loop
vertex 0.477517 -1.259964 0.613744
vertex -0.442763 -1.259964 0.613744
vertex -0.677010 -1.259964 1.609351
endloop
endfacet
facet normal 0.000000 1.000000 -0.000001
outer loop
vertex 0.477517 -1.259964 0.613744
vertex -0.677010 -1.259964 1.609351
vertex 0.995421 -1.259964 1.609351
endloop
endfacet
facet normal -1.000000 -0.000000 -0.000000
outer loop
vertex 0.995421 -1.259964 -1.490000
vertex 0.995421 -1.259964 1.609351
vertex 0.995421 -1.113273 1.010701
endloop
endfacet
facet normal -1.000000 0.000000 0.000000
outer loop
vertex 0.995421 -1.259964 -1.490000
vertex 0.995421 -1.113273 1.010701
vertex 0.995421 -1.113273 -1.490000
endloop
endfacet
facet normal -1.000000 0.000000 -0.000000
outer loop
vertex 0.995421 0.552670 1.237991
vertex 0.995421 1.194542 1.609351
vertex 0.995421 1.107984 1.066301
endloop
endfacet
facet normal -1.000000 0.000000 -0.000000
outer loop
vertex 0.995421 -0.002644 1.309947
vertex 0.995421 1.194542 1.609351
vertex 0.995421 0.552670 1.237991
endloop
endfacet
facet normal -1.000000 0.000000 -0.000000
outer loop
vertex 0.995421 -0.557959 1.237991
vertex 0.995421 -1.259964 1.609351
vertex 0.995421 -0.002644 1.309947
endloop
endfacet
facet normal -1.000000 0.000000 0.000000
outer loop
vertex 0.995421 1.194542 -1.490000
vertex 0.995421 1.107984 -1.490000
vertex 0.995421 1.107984 1.066301
endloop
endfacet
facet normal -1.000000 0.000001 -0.000000
outer loop
vertex 0.995421 1.194542 -1.490000
vertex 0.995421 1.107984 1.066301
vertex 0.995421 1.194542 1.609351
endloop
endfacet
facet normal -1.000000 0.000000 -0.000000
outer loop
vertex 0.995421 -1.113273 1.010701
vertex 0.995421 -1.259964 1.609351
vertex 0.995421 -0.557959 1.237991
endloop
endfacet
facet normal -0.000000 -1.000000 -0.000000
outer loop
vertex 0.995421 1.194542 -1.490000
vertex 0.995421 1.194542 1.609351
vertex 0.798113 1.194542 1.069856
endloop
endfacet
facet normal 0.000000 -1.000000 0.000000
outer loop
vertex 0.995421 1.194542 -1.490000
vertex 0.798113 1.194542 1.069856
vertex 0.798113 1.194542 -1.490000
endloop
endfacet
facet normal 0.000000 -1.000000 -0.000000
outer loop
vertex -0.903579 1.194542 1.069856
vertex -0.478156 1.194542 1.184128
vertex -0.995421 1.194542 1.609351
endloop
endfacet
facet normal -0.000000 -1.000000 -0.000001
outer loop
vertex -0.052733 1.194542 1.250723
vertex 0.372690 1.194542 1.184128
vertex 0.995421 1.194542 1.609351
endloop
endfacet
facet normal -0.000000 -1.000000 -0.000000
outer loop
vertex 0.372690 1.194542 1.184128
vertex 0.798113 1.194542 1.069856
vertex 0.995421 1.194542 1.609351
endloop
endfacet
facet normal 0.000000 -1.000000 0.000000
outer loop
vertex -0.995421 1.194542 -1.490000
vertex -0.903579 1.194542 -1.490000
vertex -0.903579 1.194542 1.069856
endloop
endfacet
facet normal 0.000001 -1.000000 -0.000000
outer loop
vertex -0.995421 1.194542 -1.490000
vertex -0.903579 1.194542 1.069856
vertex -0.995421 1.194542 1.609351
endloop
endfacet
facet normal 0.000000 -1.000000 -0.000001
outer loop
vertex -0.478156 1.194542 1.184128
vertex -0.052733 1.194542 1.250723
vertex -0.995421 1.194542 1.609351
endloop
endfacet
facet normal 1.000000 -0.000000 -0.000000
outer loop
vertex -0.995421 1.194542 -1.490000
vertex -0.995421 1.194542 1.609351
vertex -0.995421 0.456501 0.628748
endloop
endfacet
facet normal 1.000000 0.000000 0.000000
outer loop
vertex -0.995421 1.194542 -1.490000
vertex -0.995421 0.456501 0.628748
vertex -0.995421 0.456501 -1.490000
endloop
endfacet
facet normal 1.000000 0.000000 0.000000
outer loop
vertex -0.995421 -0.915419 -1.490000
vertex -0.995421 -0.499942 -1.490000
vertex -0.995421 -0.499942 0.628748
endloop
endfacet
facet normal 1.000000 0.000000 -0.000000
outer loop
vertex -0.995421 -0.915419 -1.490000
vertex -0.995421 -0.499942 0.628748
vertex -0.995421 -0.915419 1.609351
endloop
endfacet
facet normal 1.000000 0.000000 -0.000000
outer loop
vertex -0.995421 -0.499942 0.628748
vertex -0.995421 0.456501 0.628748
vertex -0.995421 1.194542 1.609351
endloop
endfacet
facet normal 1.000000 0.000000 -0.000000
outer loop
vertex -0.995421 -0.499942 0.628748
vertex -0.995421 1.194542 1.609351
vertex -0.995421 -0.915419 1.609351
endloop
endfacet
facet normal 0.000000 0.000000 -1.000000
outer loop
vertex -0.677010 -0.915419 1.609351
vertex 0.995421 1.194542 1.609351
vertex 0.995421 -1.259964 1.609351
endloop
endfacet
facet normal 0.000000 0.000000 -1.000000
outer loop
vertex -0.677010 -0.915419 1.609351
vertex 0.995421 -1.259964 1.609351
vertex -0.677010 -1.259964 1.609351
endloop
endfacet
facet normal 0.000000 0.000000 -1.000000
outer loop
vertex -0.995421 -0.915419 1.609351
vertex -0.995421 1.194542 1.609351
vertex 0.995421 1.194542 1.609351
endloop
endfacet
facet normal 0.000000 0.000000 -1.000000
outer loop
vertex -0.995421 -0.915419 1.609351
vertex 0.995421 1.194542 1.609351
vertex -0.677010 -0.915419 1.609351
endloop
endfacet
facet normal -1.000000 0.000000 -0.000000
outer loop
vertex 0.995421 1.194542 1.609351
vertex 0.995421 -0.002644 1.309947
vertex 0.995421 -1.259964 1.609351
endloop
endfacet
facet normal 0.000000 -1.000000 -0.000000
outer loop
vertex 1.394468 1.357537 1.609351
vertex 1.394468 1.357537 -1.490000
vertex 2.642337 1.357537 -1.490000
endloop
endfacet
facet normal 0.000000 -1.000000 -0.000000
outer loop
vertex 1.394468 1.357537 1.609351
vertex 2.642337 1.357537 -1.490000
vertex 3.020275 1.357537 1.609351
endloop
endfacet
facet normal 0.000000 1.000000 -0.000000
outer loop
vertex 1.394468 -1.259964 1.609351
vertex 3.020275 -1.259964 1.609351
vertex 2.642337 -1.259964 -1.490000
endloop
endfacet
facet normal 0.000000 1.000000 -0.000000
outer loop
vertex 1.394468 -1.259964 1.609351
vertex 2.642337 -1.259964 -1.490000
vertex 1.394468 -1.259964 -1.490000
endloop
endfacet
facet normal -0.992647 0.000000 0.121044
outer loop
vertex 3.020275 -1.259964 1.609351
vertex 3.020275 1.357537 1.609351
vertex 2.642337 1.357537 -1.490000
endloop
endfacet
facet normal -0.992647 0.000000 0.121044
outer loop
vertex 3.020275 -1.259964 1.609351
vertex 2.642337 1.357537 -1.490000
vertex 2.642337 -1.259964 -1.490000
endloop
endfacet
facet normal 0.000000 0.000000 1.000000
outer loop
vertex 2.642337 1.357537 -1.490000
vertex 1.394468 1.357537 -1.490000
vertex 1.394468 -1.259964 -1.490000
endloop
endfacet
facet normal 0.000000 0.000000 1.000000
outer loop
vertex 2.642337 1.357537 -1.490000
vertex 1.394468 -1.259964 -1.490000
vertex 2.642337 -1.259964 -1.490000
endloop
endfacet
facet normal 0.000000 0.000000 -1.000000
outer loop
vertex 1.394468 1.357537 1.609351
vertex 3.020275 1.357537 1.609351
vertex 3.020275 -1.259964 1.609351
endloop
endfacet
facet normal -0.000000 0.000000 -1.000000
outer loop
vertex 1.394468 1.357537 1.609351
vertex 3.020275 -1.259964 1.609351
vertex 1.394468 -1.259964 1.609351
endloop
endfacet
facet normal 1.000000 0.000000 0.000000
outer loop
vertex 1.394468 -0.557959 1.237991
vertex 1.394468 -1.259964 1.609351
vertex 1.394468 -1.113273 1.010701
endloop
endfacet
facet normal 1.000000 0.000000 0.000000
outer loop
vertex 1.394468 -0.557959 1.237991
vertex 1.394468 -0.002644 1.309947
vertex 1.394468 -1.259964 1.609351
endloop
endfacet
facet normal 1.000000 0.000000 0.000000
outer loop
vertex 1.394468 -1.259964 1.609351
vertex 1.394468 -0.002644 1.309947
vertex 1.394468 1.357537 1.609351
endloop
endfacet
facet normal 1.000000 0.000000 0.000000
outer loop
vertex 1.394468 -0.002644 1.309947
vertex 1.394468 0.552670 1.237991
vertex 1.394468 1.357537 1.609351
endloop
endfacet
facet normal 1.000000 -0.000002 0.000000
outer loop
vertex 1.394468 -1.113273 1.010701
vertex 1.394468 -1.259964 1.609351
vertex 1.394468 -1.259964 -1.490000
endloop
endfacet
facet normal 1.000000 0.000000 0.000000
outer loop
vertex 1.394468 -1.113273 1.010701
vertex 1.394468 -1.259964 -1.490000
vertex 1.394468 -1.113273 -1.490000
endloop
endfacet
facet normal 1.000000 0.000000 0.000000
outer loop
vertex 1.394468 1.107984 1.066301
vertex 1.394468 1.107984 -1.490000
vertex 1.394468 1.357537 -1.490000
endloop
endfacet
facet normal 1.000000 0.000001 0.000000
outer loop
vertex 1.394468 1.107984 1.066301
vertex 1.394468 1.357537 -1.490000
vertex 1.394468 1.357537 1.609351
endloop
endfacet
facet normal 1.000000 0.000000 0.000000
outer loop
vertex 1.394468 0.552670 1.237991
vertex 1.394468 1.107984 1.066301
vertex 1.394468 1.357537 1.609351
endloop
endfacet
facet normal 0.000000 -1.000000 0.000000
outer loop
vertex -0.995421 1.194542 1.609351
vertex -0.052733 1.194542 1.250723
vertex 0.995421 1.194542 1.609351
endloop
endfacet
facet normal -0.999981 -0.006139 -0.000000
outer loop
vertex -2.974546 -1.708612 1.456994
vertex -2.974288 -1.750540 -1.545730
vertex -2.968381 -2.712715 -1.532294
endloop
endfacet
facet normal -0.999981 -0.006140 -0.000000
outer loop
vertex -2.974546 -1.708612 1.456994
vertex -2.968381 -2.712715 -1.532294
vertex -2.968638 -2.670787 1.470430
endloop
endfacet
facet normal 0.006139 -0.999884 0.013962
outer loop
vertex -6.837442 -1.774259 -1.545730
vertex -2.974288 -1.750540 -1.545730
vertex -2.974546 -1.708612 1.456994
endloop
endfacet
facet normal 0.006139 -0.999884 0.013962
outer loop
vertex -6.837442 -1.774259 -1.545730
vertex -2.974546 -1.708612 1.456994
vertex -6.837700 -1.732331 1.456994
endloop
endfacet
facet normal 0.006139 -0.999884 0.013962
outer loop
vertex -2.968381 -2.712715 -1.532294
vertex -1.299375 -2.702468 -1.532294
vertex -1.299651 -2.657497 1.688331
endloop
endfacet
facet normal 0.006139 -0.999884 0.013962
outer loop
vertex -2.968381 -2.712715 -1.532294
vertex -1.299651 -2.657497 1.688331
vertex -2.968638 -2.670787 1.470430
endloop
endfacet
facet normal 0.999981 0.006139 -0.000000
outer loop
vertex -1.305283 -1.740293 -1.545730
vertex -1.305559 -1.695323 1.674896
vertex -1.299651 -2.657497 1.688331
endloop
endfacet
facet normal 0.999981 0.006140 -0.000000
outer loop
vertex -1.305283 -1.740293 -1.545730
vertex -1.299651 -2.657497 1.688331
vertex -1.299375 -2.702468 -1.532294
endloop
endfacet
facet normal 0.999894 -0.014587 0.000289
outer loop
vertex -1.299617 -2.663081 1.288460
vertex -1.299651 -2.657497 1.688331
vertex -1.371955 -7.612162 1.757509
endloop
endfacet
facet normal 0.999894 -0.014587 0.000289
outer loop
vertex -1.299617 -2.663081 1.288460
vertex -1.371955 -7.612162 1.757509
vertex -1.371920 -7.617745 1.357638
endloop
endfacet
facet normal 0.000086 -0.013962 -0.999902
outer loop
vertex -1.518722 -2.664426 1.288460
vertex -1.299617 -2.663081 1.288460
vertex -1.371920 -7.617745 1.357638
endloop
endfacet
facet normal 0.000086 -0.013962 -0.999902
outer loop
vertex -1.518722 -2.664426 1.288460
vertex -1.371920 -7.617745 1.357638
vertex -1.591025 -7.619091 1.357638
endloop
endfacet
facet normal -0.999894 0.014587 -0.000290
outer loop
vertex -1.518737 -2.661887 1.470325
vertex -1.518722 -2.664426 1.288460
vertex -1.591025 -7.619091 1.357638
endloop
endfacet
facet normal -0.999894 0.014587 -0.000290
outer loop
vertex -1.518737 -2.661887 1.470325
vertex -1.591025 -7.619091 1.357638
vertex -1.591040 -7.616551 1.539503
endloop
endfacet
facet normal 0.006139 -0.999884 0.013962
outer loop
vertex -0.459130 -1.735098 -1.545730
vertex -0.459317 -1.704717 0.630069
vertex -1.305559 -1.695323 1.674896
endloop
endfacet
facet normal 0.006139 -0.999884 0.013962
outer loop
vertex -0.459130 -1.735098 -1.545730
vertex -1.305559 -1.695323 1.674896
vertex -1.305283 -1.740293 -1.545730
endloop
endfacet
facet normal 0.006139 -0.999884 0.013962
outer loop
vertex 6.739000 -1.645932 1.674896
vertex 0.502137 -1.698814 0.630069
vertex 0.502324 -1.729195 -1.545730
endloop
endfacet
facet normal 0.006139 -0.999884 0.013962
outer loop
vertex 6.739000 -1.645932 1.674896
vertex 0.502324 -1.729195 -1.545730
vertex 6.739289 -1.692967 -1.693583
endloop
endfacet
facet normal 0.006139 -0.999884 0.013962
outer loop
vertex -1.305559 -1.695323 1.674896
vertex -0.459317 -1.704717 0.630069
vertex 0.502137 -1.698814 0.630069
endloop
endfacet
facet normal 0.006139 -0.999884 0.013962
outer loop
vertex -1.305559 -1.695323 1.674896
vertex 0.502137 -1.698814 0.630069
vertex 6.739000 -1.645932 1.674896
endloop
endfacet
facet normal 0.999981 0.006140 0.000000
outer loop
vertex -6.801297 -7.661629 -1.463520
vertex -6.837442 -1.774259 -1.545730
vertex -6.837700 -1.732331 1.456994
endloop
endfacet
facet normal 0.999981 0.006139 0.000000
outer loop
vertex -6.801297 -7.661629 -1.463520
vertex -6.837700 -1.732331 1.456994
vertex -6.801377 -7.648540 1.539503
endloop
endfacet
facet normal 0.000014 -0.013961 -0.999902
outer loop
vertex -2.968638 -2.670787 1.470430
vertex -1.518737 -2.661887 1.470325
vertex -1.591040 -7.616551 1.539503
endloop
endfacet
facet normal 0.000086 -0.013962 -0.999903
outer loop
vertex -1.591040 -7.616551 1.539503
vertex -6.801377 -7.648540 1.539503
vertex -6.831793 -2.694507 1.470325
endloop
endfacet
facet normal 0.000113 -0.013933 -0.999903
outer loop
vertex -1.591040 -7.616551 1.539503
vertex -6.831793 -2.694507 1.470325
vertex -2.968638 -2.670787 1.470430
endloop
endfacet
facet normal 0.000113 -0.013962 -0.999902
outer loop
vertex -2.974546 -1.708612 1.456994
vertex -2.968638 -2.670787 1.470430
vertex -6.831793 -2.694507 1.470325
endloop
endfacet
facet normal 0.000085 -0.013854 -0.999904
outer loop
vertex -2.974546 -1.708612 1.456994
vertex -6.831793 -2.694507 1.470325
vertex -6.837700 -1.732331 1.456994
endloop
endfacet
facet normal 0.000086 -0.013962 -0.999902
outer loop
vertex 6.775702 -7.623718 1.758368
vertex -1.371955 -7.612162 1.757509
vertex -1.305559 -1.695323 1.674896
endloop
endfacet
facet normal 0.000086 -0.013962 -0.999903
outer loop
vertex 6.775702 -7.623718 1.758368
vertex -1.305559 -1.695323 1.674896
vertex 6.739000 -1.645932 1.674896
endloop
endfacet
facet normal -0.006139 0.999972 -0.004359
outer loop
vertex -6.801297 -7.661629 -1.463520
vertex -6.801377 -7.648540 1.539503
vertex -1.591040 -7.616551 1.539503
endloop
endfacet
facet normal 0.002881 0.999796 -0.020007
outer loop
vertex -6.801297 -7.661629 -1.463520
vertex -1.591040 -7.616551 1.539503
vertex -1.836852 -7.677363 -1.534859
endloop
endfacet
facet normal -0.006140 0.999789 -0.019621
outer loop
vertex -1.836852 -7.677363 -1.534859
vertex -1.591025 -7.619091 1.357638
vertex -1.371920 -7.617745 1.357638
endloop
endfacet
facet normal -0.000943 0.999790 -0.020456
outer loop
vertex -1.836852 -7.677363 -1.534859
vertex -1.371920 -7.617745 1.357638
vertex 6.775990 -7.670699 -1.606199
endloop
endfacet
facet normal 0.001420 0.999901 -0.013962
outer loop
vertex 6.775702 -7.623718 1.758368
vertex 6.775990 -7.670699 -1.606199
vertex -1.371920 -7.617745 1.357638
endloop
endfacet
facet normal 0.001420 0.999902 -0.013958
outer loop
vertex 6.775702 -7.623718 1.758368
vertex -1.371920 -7.617745 1.357638
vertex -1.371955 -7.612162 1.757509
endloop
endfacet
facet normal -0.999981 -0.006140 -0.000000
outer loop
vertex 6.775990 -7.670699 -1.606199
vertex 6.775702 -7.623718 1.758368
vertex 6.739000 -1.645932 1.674896
endloop
endfacet
facet normal -0.999981 -0.006140 -0.000000
outer loop
vertex 6.775990 -7.670699 -1.606199
vertex 6.739000 -1.645932 1.674896
vertex 6.739289 -1.692967 -1.693583
endloop
endfacet
facet normal 0.010516 0.014026 0.999846
outer loop
vertex -6.837442 -1.774259 -1.545730
vertex -6.801297 -7.661629 -1.463520
vertex 6.775990 -7.670699 -1.606199
endloop
endfacet
facet normal 0.010800 0.014682 0.999834
outer loop
vertex -6.837442 -1.774259 -1.545730
vertex 6.775990 -7.670699 -1.606199
vertex 6.739289 -1.692967 -1.693583
endloop
endfacet
facet normal 0.006139 -0.999884 0.013968
outer loop
vertex 6.739289 -1.692967 -1.693583
vertex 0.502324 -1.729195 -1.545730
vertex -0.459130 -1.735098 -1.545730
endloop
endfacet
facet normal 0.006139 -0.999884 0.013964
outer loop
vertex 6.739289 -1.692967 -1.693583
vertex -0.459130 -1.735098 -1.545730
vertex -6.837442 -1.774259 -1.545730
endloop
endfacet
facet normal 0.861736 -0.507357 0.000000
outer loop
vertex -0.442763 -1.676601 -1.490000
vertex -0.442763 -1.676601 0.613744
vertex -0.459317 -1.704717 0.630069
endloop
endfacet
facet normal 0.962040 -0.272881 0.003893
outer loop
vertex -0.442763 -1.676601 -1.490000
vertex -0.459317 -1.704717 0.630069
vertex -0.459130 -1.735098 -1.545730
endloop
endfacet
facet normal 0.004239 -0.690386 0.723429
outer loop
vertex -0.442763 -1.676601 -1.490000
vertex -0.459130 -1.735098 -1.545730
vertex 0.502324 -1.729195 -1.545730
endloop
endfacet
facet normal 0.000000 -0.727269 0.686353
outer loop
vertex -0.442763 -1.676601 -1.490000
vertex 0.502324 -1.729195 -1.545730
vertex 0.477517 -1.676601 -1.490000
endloop
endfacet
facet normal -0.904442 -0.426596 0.000000
outer loop
vertex 0.477517 -1.676601 0.613744
vertex 0.477517 -1.676601 -1.490000
vertex 0.502324 -1.729195 -1.545730
endloop
endfacet
facet normal -0.673585 -0.739038 0.010262
outer loop
vertex 0.477517 -1.676601 0.613744
vertex 0.502324 -1.729195 -1.545730
vertex 0.502137 -1.698814 0.630069
endloop
endfacet
facet normal 0.000000 -0.592215 -0.805780
outer loop
vertex -0.442763 -1.676601 0.613744
vertex 0.477517 -1.676601 0.613744
vertex 0.502137 -1.698814 0.630069
endloop
endfacet
facet normal 0.003091 -0.503503 -0.863988
outer loop
vertex -0.442763 -1.676601 0.613744
vertex 0.502137 -1.698814 0.630069
vertex -0.459317 -1.704717 0.630069
endloop
endfacet
facet normal -0.999816 0.018960 0.002836
outer loop
vertex -1.440482 -1.305231 1.611207
vertex -1.427998 -0.499942 0.628748
vertex -1.434081 -0.503752 -1.490000
endloop
endfacet
facet normal -0.999968 0.007987 0.000000
outer loop
vertex -1.440482 -1.305231 1.611207
vertex -1.434081 -0.503752 -1.490000
vertex -1.440482 -1.305230 -1.490000
endloop
endfacet
facet normal -0.998963 -0.045539 0.000000
outer loop
vertex -2.701577 3.811473 -1.490000
vertex -2.701577 3.811473 0.569096
vertex -2.716133 4.130781 0.536678
endloop
endfacet
facet normal -0.998963 -0.045538 0.000000
outer loop
vertex -2.701577 3.811473 -1.490000
vertex -2.716133 4.130781 0.536678
vertex -2.716133 4.130781 -1.490000
endloop
endfacet
facet normal 0.002053 -0.999998 0.000000
outer loop
vertex -1.399595 3.814145 -1.490000
vertex -1.399595 3.814146 1.611207
vertex -2.701577 3.811473 0.569096
endloop
endfacet
facet normal 0.002053 -0.999998 0.000000
outer loop
vertex -1.399595 3.814145 -1.490000
vertex -2.701577 3.811473 0.569096
vertex -2.701577 3.811473 -1.490000
endloop
endfacet
facet normal 0.002052 -0.999998 0.000000
outer loop
vertex -3.627374 3.809573 -1.490000
vertex -3.627374 3.809573 0.569096
vertex -6.580256 3.803513 1.611207
endloop
endfacet
facet normal 0.002052 -0.999998 0.000000
outer loop
vertex -3.627374 3.809573 -1.490000
vertex -6.580256 3.803513 1.611207
vertex -6.580256 3.803513 -1.490000
endloop
endfacet
facet normal 0.002052 -0.999998 0.000001
outer loop
vertex -3.627374 3.809573 0.569096
vertex -2.701577 3.811473 0.569096
vertex -1.399595 3.814146 1.611207
endloop
endfacet
facet normal 0.002052 -0.999998 0.000000
outer loop
vertex -3.627374 3.809573 0.569096
vertex -1.399595 3.814146 1.611207
vertex -6.580256 3.803513 1.611207
endloop
endfacet
facet normal 0.000207 -0.101058 -0.994880
outer loop
vertex -2.701577 3.811473 0.569096
vertex -3.627374 3.809573 0.569096
vertex -3.607603 4.128759 0.536678
endloop
endfacet
facet normal 0.000229 -0.100997 -0.994887
outer loop
vertex -2.701577 3.811473 0.569096
vertex -3.607603 4.128759 0.536678
vertex -2.716133 4.130781 0.536678
endloop
endfacet
facet normal 0.998087 -0.061822 0.000000
outer loop
vertex -3.627374 3.809573 0.569096
vertex -3.627374 3.809573 -1.490000
vertex -3.607603 4.128759 -1.490000
endloop
endfacet
facet normal 0.998087 -0.061824 0.000000
outer loop
vertex -3.627374 3.809573 0.569096
vertex -3.607603 4.128759 -1.490000
vertex -3.607603 4.128759 0.536678
endloop
endfacet
facet normal 0.000000 0.000000 1.000000
outer loop
vertex -3.627374 3.809573 -1.490000
vertex -2.701577 3.811473 -1.490000
vertex -2.716133 4.130781 -1.490000
endloop
endfacet
facet normal 0.000000 0.000000 1.000000
outer loop
vertex -3.627374 3.809573 -1.490000
vertex -2.716133 4.130781 -1.490000
vertex -3.607603 4.128759 -1.490000
endloop
endfacet
facet normal 0.007987 0.999968 0.000000
outer loop
vertex -1.410848 2.405156 -1.490000
vertex -1.532306 2.406126 -1.490000
vertex -1.532306 2.406126 1.611207
endloop
endfacet
facet normal 0.007987 0.999968 0.000000
outer loop
vertex -1.410848 2.405156 -1.490000
vertex -1.532306 2.406126 1.611207
vertex -1.410848 2.405156 1.611207
endloop
endfacet
facet normal -0.007987 -0.999968 0.000000
outer loop
vertex -1.539374 1.521166 -1.490000
vertex -1.417916 1.520196 -1.490000
vertex -1.417916 1.520196 1.611207
endloop
endfacet
facet normal -0.007987 -0.999968 0.000000
outer loop
vertex -1.539374 1.521166 -1.490000
vertex -1.417916 1.520196 1.611207
vertex -1.539374 1.521166 1.611207
endloop
endfacet
facet normal -0.999968 0.007987 0.000000
outer loop
vertex -1.539374 1.521166 -1.490000
vertex -1.539374 1.521166 1.611207
vertex -1.532306 2.406126 1.611207
endloop
endfacet
facet normal -0.999968 0.007987 0.000000
outer loop
vertex -1.539374 1.521166 -1.490000
vertex -1.532306 2.406126 1.611207
vertex -1.532306 2.406126 -1.490000
endloop
endfacet
facet normal -0.999968 0.007987 0.000000
outer loop
vertex -1.399595 3.814145 -1.490000
vertex -1.410848 2.405156 -1.490000
vertex -1.410848 2.405156 1.611207
endloop
endfacet
facet normal -0.999968 0.007987 0.000000
outer loop
vertex -1.399595 3.814145 -1.490000
vertex -1.410848 2.405156 1.611207
vertex -1.399595 3.814146 1.611207
endloop
endfacet
facet normal -0.999955 0.009478 0.000000
outer loop
vertex -1.427998 0.456501 0.628748
vertex -1.417916 1.520196 1.611207
vertex -1.417916 1.520196 -1.490000
endloop
endfacet
facet normal -0.999968 0.007987 -0.000749
outer loop
vertex -1.427998 0.456501 0.628748
vertex -1.417916 1.520196 -1.490000
vertex -1.426381 0.460374 -1.490000
endloop
endfacet
facet normal -0.999919 0.000000 -0.012706
outer loop
vertex -1.427998 0.456501 0.628748
vertex -1.427998 -0.499942 0.628748
vertex -1.440482 -1.305231 1.611207
endloop
endfacet
facet normal -0.999967 0.007987 0.001615
outer loop
vertex -1.427998 0.456501 0.628748
vertex -1.440482 -1.305231 1.611207
vertex -1.417916 1.520196 1.611207
endloop
endfacet
facet normal -0.002052 0.999998 0.000000
outer loop
vertex -1.440482 -1.305230 -1.490000
vertex -6.621143 -1.315863 -1.490000
vertex -6.621143 -1.315863 1.611207
endloop
endfacet
facet normal -0.002052 0.999998 0.000000
outer loop
vertex -1.440482 -1.305230 -1.490000
vertex -6.621143 -1.315863 1.611207
vertex -1.440482 -1.305231 1.611207
endloop
endfacet
facet normal 0.999968 -0.007987 0.000000
outer loop
vertex -6.621143 -1.315863 1.611207
vertex -6.621143 -1.315863 -1.490000
vertex -6.580256 3.803513 -1.490000
endloop
endfacet
facet normal 0.999968 -0.007987 0.000000
outer loop
vertex -6.621143 -1.315863 1.611207
vertex -6.580256 3.803513 -1.490000
vertex -6.580256 3.803513 1.611207
endloop
endfacet
facet normal 0.000000 0.000000 1.000000
outer loop
vertex -1.440482 -1.305230 -1.490000
vertex -1.399595 3.814145 -1.490000
vertex -6.580256 3.803513 -1.490000
endloop
endfacet
facet normal -0.000000 0.000000 1.000000
outer loop
vertex -1.440482 -1.305230 -1.490000
vertex -6.580256 3.803513 -1.490000
vertex -6.621143 -1.315863 -1.490000
endloop
endfacet
facet normal 0.000000 0.000000 -1.000000
outer loop
vertex -1.399595 3.814146 1.611207
vertex -1.440482 -1.305231 1.611207
vertex -6.621143 -1.315863 1.611207
endloop
endfacet
facet normal 0.000000 0.000000 -1.000000
outer loop
vertex -1.399595 3.814146 1.611207
vertex -6.621143 -1.315863 1.611207
vertex -6.580256 3.803513 1.611207
endloop
endfacet
facet normal 0.002208 -0.999998 0.000000
outer loop
vertex -1.104117 14.041506 -1.490000
vertex 0.908709 14.045950 -1.490000
vertex 0.908709 14.045950 1.620236
endloop
endfacet
facet normal 0.002208 -0.999998 0.000000
outer loop
vertex -1.104117 14.041506 -1.490000
vertex 0.908709 14.045950 1.620236
vertex -1.104117 14.041506 1.620236
endloop
endfacet
facet normal 0.999970 0.007686 0.000000
outer loop
vertex -1.066686 1.633660 1.620236
vertex -1.066686 1.633660 -1.490000
vertex -1.087210 4.303808 -1.490000
endloop
endfacet
facet normal 0.999970 0.007686 0.000000
outer loop
vertex -1.066686 1.633660 1.620236
vertex -1.087210 4.303808 -1.490000
vertex -1.087210 4.303808 0.631150
endloop
endfacet
facet normal 0.999999 0.001681 0.000000
outer loop
vertex -1.104117 14.041506 -1.490000
vertex -1.104117 14.041506 1.620236
vertex -1.089286 5.219249 0.631150
endloop
endfacet
facet normal 0.999999 0.001681 0.000000
outer loop
vertex -1.104117 14.041506 -1.490000
vertex -1.089286 5.219249 0.631150
vertex -1.089286 5.219249 -1.490000
endloop
endfacet
facet normal 0.999916 0.003016 -0.012605
outer loop
vertex -1.104117 14.041506 1.620236
vertex -1.066686 1.633660 1.620236
vertex -1.087210 4.303808 0.631150
endloop
endfacet
facet normal 0.999984 0.002267 -0.005227
outer loop
vertex -1.104117 14.041506 1.620236
vertex -1.087210 4.303808 0.631150
vertex -1.089286 5.219249 0.631150
endloop
endfacet
facet normal -1.000000 -0.000263 0.000000
outer loop
vertex 0.911978 1.638028 -1.490000
vertex 0.911978 1.638028 1.620236
vertex 0.908709 14.045950 1.620236
endloop
endfacet
facet normal -1.000000 -0.000263 0.000000
outer loop
vertex 0.911978 1.638028 -1.490000
vertex 0.908709 14.045950 1.620236
vertex 0.908709 14.045950 -1.490000
endloop
endfacet
facet normal 0.000000 0.000000 -1.000000
outer loop
vertex 0.908709 14.045950 1.620236
vertex 0.911978 1.638028 1.620236
vertex -1.066686 1.633660 1.620236
endloop
endfacet
facet normal 0.000000 0.000000 -1.000000
outer loop
vertex 0.908709 14.045950 1.620236
vertex -1.066686 1.633660 1.620236
vertex -1.104117 14.041506 1.620236
endloop
endfacet
facet normal -0.000000 0.000000 1.000000
outer loop
vertex 0.908709 14.045950 -1.490000
vertex -1.104117 14.041506 -1.490000
vertex -1.066686 1.633660 -1.490000
endloop
endfacet
facet normal 0.000000 0.000000 1.000000
outer loop
vertex 0.908709 14.045950 -1.490000
vertex -1.066686 1.633660 -1.490000
vertex 0.911978 1.638028 -1.490000
endloop
endfacet
facet normal -0.002266 0.999997 0.000000
outer loop
vertex -1.416898 4.303061 -1.490000
vertex -1.416898 4.303061 0.631150
vertex -1.087210 4.303808 0.631150
endloop
endfacet
facet normal -0.002266 0.999997 0.000000
outer loop
vertex -1.416898 4.303061 -1.490000
vertex -1.087210 4.303808 0.631150
vertex -1.087210 4.303808 -1.490000
endloop
endfacet
facet normal 0.002269 -0.999997 0.000000
outer loop
vertex -1.423229 7.095089 -1.490000
vertex -1.423229 7.095089 0.807767
vertex -1.616602 7.094650 0.807767
endloop
endfacet
facet normal 0.002269 -0.999997 0.000000
outer loop
vertex -1.423229 7.095089 -1.490000
vertex -1.616602 7.094650 0.807767
vertex -1.616602 7.094650 -1.490000
endloop
endfacet
facet normal -0.999997 -0.002267 -0.000000
outer loop
vertex -1.619378 8.319133 0.807767
vertex -1.619111 8.201572 0.700776
vertex -1.616868 7.212211 0.700776
endloop
endfacet
facet normal -0.999997 -0.002267 0.000000
outer loop
vertex -1.619378 8.319133 0.807767
vertex -1.616868 7.212211 0.700776
vertex -1.616602 7.094650 0.807767
endloop
endfacet
facet normal 0.002267 -0.999997 0.000000
outer loop
vertex -3.660276 8.313619 -1.490000
vertex -1.425497 8.318686 -1.490000
vertex -1.425497 8.318686 0.795560
endloop
endfacet
facet normal 0.002267 -0.999997 0.000000
outer loop
vertex -1.425497 8.318686 0.795560
vertex -1.425497 8.318686 1.513119
vertex -3.660276 8.313619 1.513119
endloop
endfacet
facet normal 0.002267 -0.999997 0.000000
outer loop
vertex -1.425497 8.318686 0.795560
vertex -3.660276 8.313619 1.513119
vertex -3.660276 8.313619 -1.490000
endloop
endfacet
facet normal 0.000000 0.000000 1.000000
outer loop
vertex -1.616602 7.094650 0.807767
vertex -1.423229 7.095089 0.807767
vertex -1.426005 8.319571 0.807767
endloop
endfacet
facet normal 0.000000 0.000000 1.000000
outer loop
vertex -1.616602 7.094650 0.807767
vertex -1.426005 8.319571 0.807767
vertex -1.619378 8.319133 0.807767
endloop
endfacet
facet normal -0.999997 -0.002267 0.000000
outer loop
vertex -1.418974 5.218502 -1.490000
vertex -1.418974 5.218502 0.631150
vertex -1.423229 7.095089 0.807767
endloop
endfacet
facet normal -0.999997 -0.002267 0.000000
outer loop
vertex -1.418974 5.218502 -1.490000
vertex -1.423229 7.095089 0.807767
vertex -1.423229 7.095089 -1.490000
endloop
endfacet
facet normal 0.000000 0.000000 1.000000
outer loop
vertex -1.616868 7.212211 -1.383008
vertex -1.173218 7.213217 -1.383008
vertex -1.175461 8.202579 -1.383008
endloop
endfacet
facet normal 0.000000 0.000000 1.000000
outer loop
vertex -1.616868 7.212211 -1.383008
vertex -1.175461 8.202579 -1.383008
vertex -1.619111 8.201572 -1.383008
endloop
endfacet
facet normal -0.999997 -0.002267 -0.000000
outer loop
vertex -1.616602 7.094650 -1.490000
vertex -1.616868 7.212211 -1.383008
vertex -1.619111 8.201572 -1.383008
endloop
endfacet
facet normal -0.999997 -0.002267 0.000000
outer loop
vertex -1.616602 7.094650 -1.490000
vertex -1.619111 8.201572 -1.383008
vertex -1.619378 8.319133 -1.490000
endloop
endfacet
facet normal -0.999997 -0.002268 0.000000
outer loop
vertex -1.619378 8.319133 -1.490000
vertex -1.619111 8.201572 -1.383008
vertex -1.619111 8.201572 0.700776
endloop
endfacet
facet normal -0.999997 -0.002267 0.000000
outer loop
vertex -1.619378 8.319133 -1.490000
vertex -1.619111 8.201572 0.700776
vertex -1.619378 8.319133 0.807767
endloop
endfacet
facet normal -0.999997 -0.002268 0.000000
outer loop
vertex -1.616602 7.094650 0.807767
vertex -1.616868 7.212211 0.700776
vertex -1.616868 7.212211 -1.383008
endloop
endfacet
facet normal -0.999997 -0.002268 0.000000
outer loop
vertex -1.616602 7.094650 0.807767
vertex -1.616868 7.212211 -1.383008
vertex -1.616602 7.094650 -1.490000
endloop
endfacet
facet normal -0.999997 -0.002267 0.000000
outer loop
vertex -1.173218 7.213217 -1.383008
vertex -1.173218 7.213217 0.700776
vertex -1.175461 8.202579 0.700776
endloop
endfacet
facet normal -0.999997 -0.002267 0.000000
outer loop
vertex -1.173218 7.213217 -1.383008
vertex -1.175461 8.202579 0.700776
vertex -1.175461 8.202579 -1.383008
endloop
endfacet
facet normal 0.000000 0.000000 -1.000000
outer loop
vertex -1.619111 8.201572 0.700776
vertex -1.175461 8.202579 0.700776
vertex -1.173218 7.213217 0.700776
endloop
endfacet
facet normal -0.000000 0.000000 -1.000000
outer loop
vertex -1.619111 8.201572 0.700776
vertex -1.173218 7.213217 0.700776
vertex -1.616868 7.212211 0.700776
endloop
endfacet
facet normal -0.002268 0.999997 0.000000
outer loop
vertex -1.616868 7.212211 0.700776
vertex -1.173218 7.213217 0.700776
vertex -1.173218 7.213217 -1.383008
endloop
endfacet
facet normal -0.002268 0.999997 0.000000
outer loop
vertex -1.616868 7.212211 0.700776
vertex -1.173218 7.213217 -1.383008
vertex -1.616868 7.212211 -1.383008
endloop
endfacet
facet normal 0.002268 -0.999997 0.000000
outer loop
vertex -1.619111 8.201572 -1.383008
vertex -1.175461 8.202579 -1.383008
vertex -1.175461 8.202579 0.700776
endloop
endfacet
facet normal 0.002268 -0.999997 0.000000
outer loop
vertex -1.619111 8.201572 -1.383008
vertex -1.175461 8.202579 0.700776
vertex -1.619111 8.201572 0.700776
endloop
endfacet
facet normal -0.999997 -0.002267 0.000000
outer loop
vertex -1.416515 4.133727 1.513119
vertex -1.416898 4.303061 0.631150
vertex -1.416898 4.303061 -1.490000
endloop
endfacet
facet normal -0.999997 -0.002265 0.000000
outer loop
vertex -1.416515 4.133727 1.513119
vertex -1.416898 4.303061 -1.490000
vertex -1.416515 4.133727 -1.490000
endloop
endfacet
facet normal -0.999997 -0.002267 0.000000
outer loop
vertex -1.423229 7.095089 0.807767
vertex -1.418974 5.218502 0.631150
vertex -1.418974 5.218502 1.513119
endloop
endfacet
facet normal -0.999997 -0.002267 0.000000
outer loop
vertex -1.423229 7.095089 0.807767
vertex -1.418974 5.218502 1.513119
vertex -1.423229 7.095089 1.513119
endloop
endfacet
facet normal -0.999998 -0.001854 0.000000
outer loop
vertex -1.425497 8.318686 0.795560
vertex -1.423229 7.095089 0.807767
vertex -1.423229 7.095089 1.513119
endloop
endfacet
facet normal -0.999998 -0.001854 0.000000
outer loop
vertex -1.425497 8.318686 0.795560
vertex -1.423229 7.095089 1.513119
vertex -1.425497 8.318686 1.513119
endloop
endfacet
facet normal -0.999997 -0.002267 -0.000000
outer loop
vertex -1.418974 5.218502 0.631150
vertex -1.416898 4.303061 0.631150
vertex -1.416515 4.133727 1.513119
endloop
endfacet
facet normal -0.999997 -0.002267 0.000000
outer loop
vertex -1.418974 5.218502 0.631150
vertex -1.416515 4.133727 1.513119
vertex -1.418974 5.218502 1.513119
endloop
endfacet
facet normal 0.999925 -0.012246 0.000000
outer loop
vertex -3.711533 4.128524 -1.490000
vertex -3.660276 8.313619 -1.490000
vertex -3.660276 8.313619 1.513119
endloop
endfacet
facet normal 0.999925 -0.012247 0.000000
outer loop
vertex -3.711533 4.128524 -1.490000
vertex -3.660276 8.313619 1.513119
vertex -3.711533 4.128524 1.513119
endloop
endfacet
facet normal -0.000000 0.000000 -1.000000
outer loop
vertex -1.416898 4.303061 0.631150
vertex -1.418974 5.218502 0.631150
vertex -1.089286 5.219249 0.631150
endloop
endfacet
facet normal 0.000000 0.000000 -1.000000
outer loop
vertex -1.416898 4.303061 0.631150
vertex -1.089286 5.219249 0.631150
vertex -1.087210 4.303808 0.631150
endloop
endfacet
facet normal 0.002266 -0.999997 0.000000
outer loop
vertex -1.418974 5.218502 0.631150
vertex -1.418974 5.218502 -1.490000
vertex -1.089286 5.219249 -1.490000
endloop
endfacet
facet normal 0.002266 -0.999997 0.000000
outer loop
vertex -1.418974 5.218502 0.631150
vertex -1.089286 5.219249 -1.490000
vertex -1.089286 5.219249 0.631150
endloop
endfacet
facet normal 0.000000 0.000000 1.000000
outer loop
vertex -1.418974 5.218502 -1.490000
vertex -1.416898 4.303061 -1.490000
vertex -1.087210 4.303808 -1.490000
endloop
endfacet
facet normal 0.000000 0.000000 1.000000
outer loop
vertex -1.418974 5.218502 -1.490000
vertex -1.087210 4.303808 -1.490000
vertex -1.089286 5.219249 -1.490000
endloop
endfacet
facet normal -0.002266 0.999997 0.000000
outer loop
vertex -3.711533 4.128524 1.513119
vertex -3.607603 4.128759 0.536678
vertex -3.607603 4.128759 -1.490000
endloop
endfacet
facet normal -0.002267 0.999997 0.000000
outer loop
vertex -3.711533 4.128524 1.513119
vertex -3.607603 4.128759 -1.490000
vertex -3.711533 4.128524 -1.490000
endloop
endfacet
facet normal -0.002267 0.999997 0.000000
outer loop
vertex -2.716133 4.130781 -1.490000
vertex -2.716133 4.130781 0.536678
vertex -1.416515 4.133727 1.513119
endloop
endfacet
facet normal -0.002267 0.999997 0.000000
outer loop
vertex -2.716133 4.130781 -1.490000
vertex -1.416515 4.133727 1.513119
vertex -1.416515 4.133727 -1.490000
endloop
endfacet
facet normal -0.002267 0.999997 0.000001
outer loop
vertex -2.716133 4.130781 0.536678
vertex -3.607603 4.128759 0.536678
vertex -3.711533 4.128524 1.513119
endloop
endfacet
facet normal -0.002267 0.999997 0.000000
outer loop
vertex -2.716133 4.130781 0.536678
vertex -3.711533 4.128524 1.513119
vertex -1.416515 4.133727 1.513119
endloop
endfacet
facet normal 0.000000 0.000000 -1.000000
outer loop
vertex -1.425497 8.318686 1.513119
vertex -1.416515 4.133727 1.513119
vertex -3.711533 4.128524 1.513119
endloop
endfacet
facet normal 0.000000 0.000000 -1.000000
outer loop
vertex -1.425497 8.318686 1.513119
vertex -3.711533 4.128524 1.513119
vertex -3.660276 8.313619 1.513119
endloop
endfacet
facet normal -0.000000 0.000000 1.000000
outer loop
vertex -3.660276 8.313619 -1.490000
vertex -3.711533 4.128524 -1.490000
vertex -1.416515 4.133727 -1.490000
endloop
endfacet
facet normal 0.000000 0.000000 1.000000
outer loop
vertex -3.660276 8.313619 -1.490000
vertex -1.416515 4.133727 -1.490000
vertex -1.425497 8.318686 -1.490000
endloop
endfacet
facet normal -0.000000 0.000006 1.000000
outer loop
vertex 0.798113 1.617056 -1.490000
vertex 0.911978 1.638028 -1.490000
vertex -1.066686 1.633660 -1.490000
endloop
endfacet
facet normal 0.000000 0.000007 1.000000
outer loop
vertex 0.798113 1.617056 -1.490000
vertex -1.066686 1.633660 -1.490000
vertex -0.903579 1.617056 -1.490000
endloop
endfacet
facet normal -0.181141 0.983457 0.000000
outer loop
vertex 0.798113 1.617056 1.069856
vertex 0.911978 1.638028 1.620236
vertex 0.911978 1.638028 -1.490000
endloop
endfacet
facet normal -0.181142 0.983457 0.000000
outer loop
vertex 0.798113 1.617056 1.069856
vertex 0.911978 1.638028 -1.490000
vertex 0.798113 1.617056 -1.490000
endloop
endfacet
facet normal 0.101274 0.994859 0.000000
outer loop
vertex -0.903579 1.617056 1.069856
vertex -0.903579 1.617056 -1.490000
vertex -1.066686 1.633660 -1.490000
endloop
endfacet
facet normal 0.101273 0.994859 0.000000
outer loop
vertex -0.903579 1.617056 1.069856
vertex -1.066686 1.633660 -1.490000
vertex -1.066686 1.633660 1.620236
endloop
endfacet
facet normal -0.011249 0.999297 -0.035751
outer loop
vertex 0.372690 1.617056 1.203714
vertex 0.911978 1.638028 1.620236
vertex 0.798113 1.617056 1.069856
endloop
endfacet
facet normal -0.004863 0.999019 -0.044006
outer loop
vertex -0.052733 1.617056 1.250723
vertex 0.911978 1.638028 1.620236
vertex 0.372690 1.617056 1.203714
endloop
endfacet
facet normal 0.007503 0.999582 -0.027932
outer loop
vertex -0.903579 1.617056 1.069856
vertex -1.066686 1.633660 1.620236
vertex -0.478156 1.617056 1.184128
endloop
endfacet
facet normal 0.004918 0.999494 -0.031416
outer loop
vertex -0.478156 1.617056 1.184128
vertex -1.066686 1.633660 1.620236
vertex -0.052733 1.617056 1.250723
endloop
endfacet
facet normal -0.002205 0.998700 -0.050927
outer loop
vertex -1.066686 1.633660 1.620236
vertex 0.911978 1.638028 1.620236
vertex -0.052733 1.617056 1.250723
endloop
endfacet
facet normal 0.000025 0.000000 1.000000
outer loop
vertex -1.087210 4.303808 -1.490000
vertex -1.066686 1.633660 -1.490000
vertex -1.104117 14.041506 -1.490000
endloop
endfacet
facet normal -0.000403 0.000000 1.000000
outer loop
vertex -1.087210 4.303808 -1.490000
vertex -1.104117 14.041506 -1.490000
vertex -1.089286 5.219249 -1.490000
endloop
endfacet
facet normal -0.072465 0.997274 -0.013925
outer loop
vertex -1.591025 -7.619091 1.357638
vertex -1.836852 -7.677363 -1.534859
vertex -1.591040 -7.616551 1.539503
endloop
endfacet
endsolid Exported from Blender-2.83.0
